<?xml version="1.0" standalone="no"?><!DOCTYPE svg PUBLIC "-//W3C//DTD SVG 1.1//EN" "http://www.w3.org/Graphics/SVG/1.1/DTD/svg11.dtd"><svg class="icon" width="64px" height="64.00px" viewBox="0 0 1024 1024" version="1.1" xmlns="http://www.w3.org/2000/svg"><path fill="white" d="M906.971429 470.2208 555.885714 470.2208l0-351.085714c0-24.239543-19.6608-43.885714-43.885714-43.885714-24.239543 0-43.885714 19.646171-43.885714 43.885714l0 351.085714L117.028571 470.2208c-24.239543 0-43.885714 19.646171-43.885714 43.885714 0 24.224914 19.646171 43.885714 43.885714 43.885714l351.085714 0 0 351.085714c0 24.224914 19.646171 43.885714 43.885714 43.885714 24.224914 0 43.885714-19.6608 43.885714-43.885714l0-351.085714 351.085714 0c24.224914 0 43.885714-19.6608 43.885714-43.885714C950.857143 489.852343 931.196343 470.2208 906.971429 470.2208z" /></svg>