<?xml version="1.0" standalone="no"?><!DOCTYPE svg PUBLIC "-//W3C//DTD SVG 1.1//EN" "http://www.w3.org/Graphics/SVG/1.1/DTD/svg11.dtd"><svg class="icon" width="64px" height="64.00px" viewBox="0 0 1024 1024" version="1.1" xmlns="http://www.w3.org/2000/svg"><path fill="#333333" d="M430.306908 844.989977c-215.618802 0-391.005298-175.386496-391.005298-391.004275 0-215.618802 175.386496-391.023718 391.005298-391.023718 215.617779 0 391.005298 175.404915 391.005298 391.023718C821.311183 669.604504 645.924687 844.989977 430.306908 844.989977zM430.306908 120.18322c-184.066179 0-333.785086 149.736303-333.785086 333.803505 0 184.066179 149.718907 333.783039 333.785086 333.783039 184.02934 0 333.784062-149.717883 333.784062-333.783039C764.089947 269.919523 614.336248 120.18322 430.306908 120.18322zM930.9083 959.394586c-13.1853 0-26.523073-4.583388-37.328164-13.933337l-209.807447-181.196829c-23.914666-20.639063-26.523073-56.773028-5.885034-80.68974 20.638039-23.916712 56.773028-26.599821 80.688717-5.887081l209.80847 181.197852c23.914666 20.638039 26.524097 56.772005 5.886057 80.690764C962.946994 952.688861 947.00286 959.394586 930.9083 959.394586z" /></svg>