<?xml version="1.0" standalone="no"?><!DOCTYPE svg PUBLIC "-//W3C//DTD SVG 1.1//EN" "http://www.w3.org/Graphics/SVG/1.1/DTD/svg11.dtd"><svg class="icon" width="64px" height="64.00px" viewBox="0 0 1024 1024" version="1.1" xmlns="http://www.w3.org/2000/svg"><path fill='rgb(207,207,207)' d="M512 292.571429c-141.357714 0-256 114.642286-256 256s114.642286 256 256 256 256-114.642286 256-256S653.357714 292.571429 512 292.571429zM512 713.142857c-90.750171 0-164.571429-73.821257-164.571429-164.571429s73.821257-164.571429 164.571429-164.571429 164.571429 73.821257 164.571429 164.571429S602.750171 713.142857 512 713.142857zM841.142857 292.571429c-20.214857 0-36.571429 16.356571-36.571429 36.571429s16.356571 36.571429 36.571429 36.571429 36.571429-16.356571 36.571429-36.571429S861.357714 292.571429 841.142857 292.571429zM950.857143 182.857143 750.999771 182.857143l-62.2848-93.429029C681.929143 79.250286 670.500571 73.142857 658.285714 73.142857L365.714286 73.142857c-12.214857 0-23.643429 6.107429-30.429257 16.285257L273.000229 182.857143 73.142857 182.857143c-40.321829 0-73.142857 32.821029-73.142857 73.142857l0 585.142857c0 40.321829 32.821029 73.142857 73.142857 73.142857l877.714286 0c40.321829 0 73.142857-32.821029 73.142857-73.142857L1024 256C1024 215.678171 991.178971 182.857143 950.857143 182.857143zM73.142857 841.142857 73.142857 256l219.428571 0c12.214857 0 23.643429-6.107429 30.429257-16.285257L385.285486 146.285714l253.429029 0 62.2848 93.429029C707.786971 249.892571 719.215543 256 731.428571 256l219.428571 0 0.071314 585.142857L73.142857 841.142857z" /></svg>